HIERARCHY
ROOT newVegas:Hips
{
	OFFSET 0.000000 96.479958 0.000000
	CHANNELS 6 Xposition Yposition Zposition Xrotation Yrotation Zrotation
	JOINT newVegas:Pelvis
	{
		OFFSET 0.000000 0.000000 0.000000
		CHANNELS 3 Xrotation Yrotation Zrotation
		JOINT newVegas:LeftUpLeg
		{
			OFFSET 18.735201 -5.666702 -4.541200
			CHANNELS 3 Xrotation Yrotation Zrotation
			JOINT newVegas:LeftLeg
			{
				OFFSET -0.021200 -31.938179 0.493100
				CHANNELS 3 Xrotation Yrotation Zrotation
				JOINT newVegas:LeftFoot
				{
					OFFSET 0.021200 -31.938179 -4.336299
					CHANNELS 3 Xrotation Yrotation Zrotation
					JOINT newVegas:LeftToeBase
					{
						OFFSET 0.943001 -26.722000 15.023500
						CHANNELS 3 Xrotation Yrotation Zrotation
						End Site
						{
							OFFSET 0.000000 30.670183 0.000000
						}
					}
				}
				JOINT newVegas:Left_PantLeg
				{
					OFFSET 0.663870 -9.044666 -1.108900
					CHANNELS 3 Xrotation Yrotation Zrotation
					End Site
					{
						OFFSET 1.415995 20.635357 0.000000
					}
				}
			}
		}
		JOINT newVegas:RightUpLeg
		{
			OFFSET -18.735201 -5.666702 -4.541200
			CHANNELS 3 Xrotation Yrotation Zrotation
			JOINT newVegas:RightLeg
			{
				OFFSET 0.018946 -31.938133 0.493100
				CHANNELS 3 Xrotation Yrotation Zrotation
				JOINT newVegas:RightFoot
				{
					OFFSET -0.018946 -31.938126 -4.336299
					CHANNELS 3 Xrotation Yrotation Zrotation
					JOINT newVegas:RightToeBase
					{
						OFFSET -0.943001 -26.722004 15.023500
						CHANNELS 3 Xrotation Yrotation Zrotation
						End Site
						{
							OFFSET 0.000000 30.670187 0.000000
						}
					}
				}
				JOINT newVegas:Right_PantLeg
				{
					OFFSET -0.661674 -9.044716 -1.108900
					CHANNELS 3 Xrotation Yrotation Zrotation
					End Site
					{
						OFFSET -1.415958 20.635269 0.000000
					}
				}
			}
		}
	}
	JOINT newVegas:Spine
	{
		OFFSET 0.000000 10.199997 -0.299500
		CHANNELS 3 Xrotation Yrotation Zrotation
		JOINT newVegas:Spine1
		{
			OFFSET 0.000000 11.900002 -1.516600
			CHANNELS 3 Xrotation Yrotation Zrotation
			JOINT newVegas:Spine2
			{
				OFFSET 0.000000 13.600006 -2.842500
				CHANNELS 3 Xrotation Yrotation Zrotation
				JOINT newVegas:Neck
				{
					OFFSET 0.000000 9.624100 -2.890100
					CHANNELS 3 Xrotation Yrotation Zrotation
					JOINT newVegas:Head
					{
						OFFSET 0.000000 14.068802 -1.351900
						CHANNELS 3 Xrotation Yrotation Zrotation
						JOINT newVegas:Hair_Back
						{
							OFFSET 0.000000 3.231903 -17.524799
							CHANNELS 3 Xrotation Yrotation Zrotation
							End Site
							{
								OFFSET 0.000000 19.849884 0.000000
							}
						}
						JOINT newVegas:Hair_Front
						{
							OFFSET 0.000000 31.260406 4.573800
							CHANNELS 3 Xrotation Yrotation Zrotation
							JOINT newVegas:Hair_Front1
							{
								OFFSET 0.000000 2.284103 11.993300
								CHANNELS 3 Xrotation Yrotation Zrotation
								JOINT newVegas:Hair_Front2
								{
									OFFSET 0.000000 2.284103 11.993300
									CHANNELS 3 Xrotation Yrotation Zrotation
									End Site
									{
										OFFSET 0.000000 12.208862 0.000000
									}
								}
							}
						}
						JOINT newVegas:Jowel
						{
							OFFSET 0.000000 -7.458206 6.864100
							CHANNELS 3 Xrotation Yrotation Zrotation
							End Site
							{
								OFFSET 0.000000 19.849884 0.000000
							}
						}
					}
				}
				JOINT newVegas:LeftShoulder
				{
					OFFSET 15.263000 10.923401 -0.547700
					CHANNELS 3 Xrotation Yrotation Zrotation
					JOINT newVegas:LeftArm
					{
						OFFSET 25.438599 -2.830597 -13.032500
						CHANNELS 3 Xrotation Yrotation Zrotation
						JOINT newVegas:LeftForeArm
						{
							OFFSET 29.960503 0.000000 0.000000
							CHANNELS 3 Xrotation Yrotation Zrotation
							JOINT newVegas:LeftHand
							{
								OFFSET 27.849251 0.000000 0.000000
								CHANNELS 3 Xrotation Yrotation Zrotation
								JOINT newVegas:LeftHandThumb1
								{
									OFFSET 4.487587 -3.305161 6.305391
									CHANNELS 3 Xrotation Yrotation Zrotation
									JOINT newVegas:LeftHandThumb2
									{
										OFFSET 5.480453 -3.164139 3.164143
										CHANNELS 3 Xrotation Yrotation Zrotation
										JOINT newVegas:LeftHandThumb3
										{
											OFFSET 5.159721 -2.978973 2.978967
											CHANNELS 3 Xrotation Yrotation Zrotation
											End Site
											{
												OFFSET 2.494507 5.926697 1.738678
											}
										}
									}
								}
								JOINT newVegas:LeftHandIndex1
								{
									OFFSET 18.578728 -0.527832 5.208049
									CHANNELS 3 Xrotation Yrotation Zrotation
									JOINT newVegas:LeftHandIndex2
									{
										OFFSET 3.192009 0.000000 0.000000
										CHANNELS 3 Xrotation Yrotation Zrotation
										JOINT newVegas:LeftHandIndex3
										{
											OFFSET 3.835129 0.000000 0.000000
											CHANNELS 3 Xrotation Yrotation Zrotation
											End Site
											{
												OFFSET -0.034599 3.816971 0.371180
											}
										}
									}
								}
								JOINT newVegas:LeftHandMiddle1
								{
									OFFSET 18.476105 0.000000 0.000000
									CHANNELS 3 Xrotation Yrotation Zrotation
									JOINT newVegas:LeftHandMiddle2
									{
										OFFSET 3.324875 0.000000 0.000000
										CHANNELS 3 Xrotation Yrotation Zrotation
										JOINT newVegas:LeftHandMiddle3
										{
											OFFSET 4.596550 0.000000 0.000000
											CHANNELS 3 Xrotation Yrotation Zrotation
											End Site
											{
												OFFSET 0.057701 4.578827 0.399218
											}
										}
									}
								}
								JOINT newVegas:LeftHandRing1
								{
									OFFSET 17.732719 0.121887 -4.201567
									CHANNELS 3 Xrotation Yrotation Zrotation
									JOINT newVegas:LeftHandRing2
									{
										OFFSET 2.733170 0.000000 0.000000
										CHANNELS 3 Xrotation Yrotation Zrotation
										JOINT newVegas:LeftHandRing3
										{
											OFFSET 3.178268 0.000000 0.000000
											CHANNELS 3 Xrotation Yrotation Zrotation
											End Site
											{
												OFFSET 0.119102 3.170624 0.185394
											}
										}
									}
								}
								JOINT newVegas:LeftHandPinky1
								{
									OFFSET 15.989624 -0.606689 -7.535461
									CHANNELS 3 Xrotation Yrotation Zrotation
									JOINT newVegas:LeftHandPinky2
									{
										OFFSET 2.538986 0.000000 0.000000
										CHANNELS 3 Xrotation Yrotation Zrotation
										JOINT newVegas:LeftHandPinky3
										{
											OFFSET 2.593102 0.000000 0.000000
											CHANNELS 3 Xrotation Yrotation Zrotation
											End Site
											{
												OFFSET -0.150902 2.584198 0.152708
											}
										}
									}
								}
							}
							JOINT newVegas:Left_Sleeve
							{
								OFFSET 0.267448 -0.649796 0.577675
								CHANNELS 3 Xrotation Yrotation Zrotation
								End Site
								{
									OFFSET 0.000000 15.991241 0.000000
								}
							}
							JOINT newVegas:Left_CapeC
							{
								OFFSET 15.715958 -8.608795 -6.935905
								CHANNELS 3 Xrotation Yrotation Zrotation
								JOINT newVegas:Left_CapeC1
								{
									OFFSET 0.000000 -8.688499 0.000000
									CHANNELS 3 Xrotation Yrotation Zrotation
									End Site
									{
										OFFSET 0.000000 8.688499 0.000000
									}
								}
							}
						}
						JOINT newVegas:Left_CapeB
						{
							OFFSET 26.118385 -8.608795 -7.079235
							CHANNELS 3 Xrotation Yrotation Zrotation
							JOINT newVegas:Left_CapeB1
							{
								OFFSET 0.000000 -8.688499 0.000000
								CHANNELS 3 Xrotation Yrotation Zrotation
								End Site
								{
									OFFSET 0.000000 8.688499 0.000000
								}
							}
						}
						JOINT newVegas:Left_CapeA
						{
							OFFSET 5.115639 -8.608795 -10.395809
							CHANNELS 3 Xrotation Yrotation Zrotation
							JOINT newVegas:Left_CapeA1
							{
								OFFSET 0.000000 -8.688499 0.000000
								CHANNELS 3 Xrotation Yrotation Zrotation
								End Site
								{
									OFFSET 0.000000 8.688499 0.000000
								}
							}
						}
					}
				}
				JOINT newVegas:RightShoulder
				{
					OFFSET -15.263000 10.923401 -0.547700
					CHANNELS 3 Xrotation Yrotation Zrotation
					JOINT newVegas:RightArm
					{
						OFFSET -25.438599 -2.830597 -13.032500
						CHANNELS 3 Xrotation Yrotation Zrotation
						JOINT newVegas:RightForeArm
						{
							OFFSET -29.960503 0.000000 0.000000
							CHANNELS 3 Xrotation Yrotation Zrotation
							JOINT newVegas:RightHand
							{
								OFFSET -27.849251 0.000000 0.000000
								CHANNELS 3 Xrotation Yrotation Zrotation
								JOINT newVegas:RightHandThumb1
								{
									OFFSET -4.487587 -3.305161 6.305391
									CHANNELS 3 Xrotation Yrotation Zrotation
									JOINT newVegas:RightHandThumb2
									{
										OFFSET -5.480453 -3.164139 3.164143
										CHANNELS 3 Xrotation Yrotation Zrotation
										JOINT newVegas:RightHandThumb3
										{
											OFFSET -5.159721 -2.978973 2.978967
											CHANNELS 3 Xrotation Yrotation Zrotation
											End Site
											{
												OFFSET -2.494507 5.926697 1.738678
											}
										}
									}
								}
								JOINT newVegas:RightHandIndex1
								{
									OFFSET -18.578728 -0.527832 5.208049
									CHANNELS 3 Xrotation Yrotation Zrotation
									JOINT newVegas:RightHandIndex2
									{
										OFFSET -3.192009 0.000000 0.000000
										CHANNELS 3 Xrotation Yrotation Zrotation
										JOINT newVegas:RightHandIndex3
										{
											OFFSET -3.835129 0.000000 0.000000
											CHANNELS 3 Xrotation Yrotation Zrotation
											End Site
											{
												OFFSET 0.034599 3.816971 0.371180
											}
										}
									}
								}
								JOINT newVegas:RightHandMiddle1
								{
									OFFSET -18.476105 0.000000 0.000000
									CHANNELS 3 Xrotation Yrotation Zrotation
									JOINT newVegas:RightHandMiddle2
									{
										OFFSET -3.324875 0.000000 0.000000
										CHANNELS 3 Xrotation Yrotation Zrotation
										JOINT newVegas:RightHandMiddle3
										{
											OFFSET -4.596550 0.000000 0.000000
											CHANNELS 3 Xrotation Yrotation Zrotation
											End Site
											{
												OFFSET -0.057701 4.578827 0.399218
											}
										}
									}
								}
								JOINT newVegas:RightHandRing1
								{
									OFFSET -17.732719 0.121887 -4.201567
									CHANNELS 3 Xrotation Yrotation Zrotation
									JOINT newVegas:RightHandRing2
									{
										OFFSET -2.733170 0.000000 0.000000
										CHANNELS 3 Xrotation Yrotation Zrotation
										JOINT newVegas:RightHandRing3
										{
											OFFSET -3.178268 0.000000 0.000000
											CHANNELS 3 Xrotation Yrotation Zrotation
											End Site
											{
												OFFSET -0.119102 3.170624 0.185394
											}
										}
									}
								}
								JOINT newVegas:RightHandPinky1
								{
									OFFSET -15.989624 -0.606689 -7.535461
									CHANNELS 3 Xrotation Yrotation Zrotation
									JOINT newVegas:RightHandPinky2
									{
										OFFSET -2.538986 0.000000 0.000000
										CHANNELS 3 Xrotation Yrotation Zrotation
										JOINT newVegas:RightHandPinky3
										{
											OFFSET -2.593102 0.000000 0.000000
											CHANNELS 3 Xrotation Yrotation Zrotation
											End Site
											{
												OFFSET 0.150902 2.584198 0.152708
											}
										}
									}
								}
							}
							JOINT newVegas:Right_CapeC
							{
								OFFSET -15.715958 -8.608795 -6.935905
								CHANNELS 3 Xrotation Yrotation Zrotation
								JOINT newVegas:Right_CapeC1
								{
									OFFSET 0.000000 -8.688499 0.000000
									CHANNELS 3 Xrotation Yrotation Zrotation
									End Site
									{
										OFFSET 0.000000 8.688499 0.000000
									}
								}
							}
							JOINT newVegas:Right_Sleeve
							{
								OFFSET -0.267448 -0.649994 0.577675
								CHANNELS 3 Xrotation Yrotation Zrotation
								End Site
								{
									OFFSET 0.000000 15.991302 0.000000
								}
							}
						}
						JOINT newVegas:Right_CapeA
						{
							OFFSET -5.115540 -8.608795 -10.395824
							CHANNELS 3 Xrotation Yrotation Zrotation
							JOINT newVegas:Right_CapeA1
							{
								OFFSET 0.000000 -8.688499 0.000000
								CHANNELS 3 Xrotation Yrotation Zrotation
								End Site
								{
									OFFSET 0.000000 8.688499 0.000000
								}
							}
						}
						JOINT newVegas:Right_CapeB
						{
							OFFSET -26.118187 -8.608795 -7.079266
							CHANNELS 3 Xrotation Yrotation Zrotation
							JOINT newVegas:Right_CapeB1
							{
								OFFSET 0.000000 -8.688499 0.000000
								CHANNELS 3 Xrotation Yrotation Zrotation
								End Site
								{
									OFFSET 0.000000 8.688499 0.000000
								}
							}
						}
					}
				}
				JOINT newVegas:Left_Collar
				{
					OFFSET 18.625099 8.655502 8.828100
					CHANNELS 3 Xrotation Yrotation Zrotation
					JOINT newVegas:Left_Collar1
					{
						OFFSET 14.783401 10.540405 -1.259500
						CHANNELS 3 Xrotation Yrotation Zrotation
						End Site
						{
							OFFSET 0.000000 18.199875 0.000000
						}
					}
				}
				JOINT newVegas:Collar_Back
				{
					OFFSET 0.000000 15.630707 -20.132601
					CHANNELS 3 Xrotation Yrotation Zrotation
					End Site
					{
						OFFSET 0.000000 22.523010 0.000000
					}
				}
				JOINT newVegas:Left_Peck
				{
					OFFSET 17.239599 -5.132599 25.482599
					CHANNELS 3 Xrotation Yrotation Zrotation
					End Site
					{
						OFFSET 0.000000 22.523010 0.000000
					}
				}
				JOINT newVegas:Right_Peck
				{
					OFFSET -17.239599 -5.132202 25.482599
					CHANNELS 3 Xrotation Yrotation Zrotation
					End Site
					{
						OFFSET 0.000000 22.523010 0.000000
					}
				}
				JOINT newVegas:Right_Collar
				{
					OFFSET -18.625099 8.655792 8.828100
					CHANNELS 3 Xrotation Yrotation Zrotation
					JOINT newVegas:Right_Collar1
					{
						OFFSET -14.783401 10.539993 -1.259500
						CHANNELS 3 Xrotation Yrotation Zrotation
						End Site
						{
							OFFSET 0.000000 18.199631 0.000000
						}
					}
				}
			}
		}
		JOINT newVegas:Belly
		{
			OFFSET 0.000000 -6.540398 9.014299
			CHANNELS 3 Xrotation Yrotation Zrotation
			End Site
			{
				OFFSET 0.000000 11.566666 0.000000
			}
		}
	}
	JOINT newVegas:ElvisFacialAnim_Joint
	{
		OFFSET 1.000000 -95.330101 -8.825800
		CHANNELS 3 Xrotation Yrotation Zrotation
		End Site
		{
			OFFSET 0.000000 35.315800 0.000000
		}
	}
}
MOTION
Frames: 4
Frame Time: 0.033333
-1.487498 90.771858 4.005256 1.808639 -21.652502 -1.417087 0.000000 0.000002 -0.000000 -27.634867 10.978125 26.742760 36.561087 7.911593 -0.438935 -6.158343 3.773645 -15.003573 -0.000000 -0.000000 0.000000 0.000000 0.000000 0.000001 -12.160096 -8.913991 -13.136291 25.517720 7.224036 -3.595577 -16.476209 -3.316486 14.859454 0.000000 -0.000002 0.000000 0.000001 -0.000001 0.000000 5.892531 1.321357 -0.243030 1.447117 0.354089 -0.231526 1.446404 0.366742 -0.225805 0.684270 0.686754 -0.127592 0.684281 0.686747 -0.127594 -0.000000 0.000001 -0.000000 0.684339 0.686757 -0.127595 0.684197 0.686745 -0.127590 0.000001 -0.000002 -0.000000 -0.000000 0.000001 -0.000001 2.733825 -11.334205 -8.407506 -7.463146 7.064802 -64.322753 0.000004 -23.394863 0.000024 12.553183 1.244633 -2.697537 5.882992 2.726456 2.651800 6.901236 12.699478 0.413219 0.000002 0.000001 -0.000001 -1.264330 -6.785034 -8.473057 0.228958 1.623428 -16.055333 -0.000003 -0.000000 0.000000 2.125140 10.392670 -15.613292 0.491227 2.350154 -23.608827 0.000000 -0.000003 -0.000001 7.168768 15.057348 -32.538311 0.941210 3.186385 -32.905024 0.000002 0.000001 -0.000004 6.475489 20.541890 -36.126025 1.382797 3.781330 -40.162451 -0.000001 -0.000003 -0.000002 -0.000000 -0.000003 0.000000 -0.000000 -0.000003 0.000000 -0.000001 -0.000002 0.000000 -0.000003 -0.000001 0.000001 -0.000003 -0.000001 0.000001 -0.000003 -0.000001 0.000001 -0.000002 -0.000001 0.000001 2.565643 8.239814 10.527783 -4.566065 -4.651106 64.506431 -0.000012 26.189829 0.000023 26.613882 3.532777 1.907949 -13.137577 -0.674457 -6.848506 17.219252 -31.709758 -5.356356 0.000001 0.000000 -0.000000 -0.118462 -1.205504 7.036227 0.194614 -1.333574 16.604929 -0.000000 -0.000000 -0.000000 0.111686 -3.124072 14.623879 0.722966 -2.494191 32.324857 0.000001 -0.000001 -0.000002 1.755426 -7.261832 22.763036 1.012222 -2.900840 38.465030 -0.000001 0.000001 0.000000 3.272087 -9.793708 26.472760 1.210867 -3.134312 42.237077 -0.000001 0.000001 0.000002 0.000000 -0.000001 0.000000 0.000000 0.000000 0.000000 0.000000 -0.000001 0.000000 -0.000001 0.000001 -0.000001 -0.000001 0.000001 -0.000000 -0.000001 0.000001 -0.000001 -0.000001 0.000001 -0.000000 0.000001 -0.000000 -0.000000 0.000001 -0.000000 -0.000000 0.000001 -0.000000 -0.000000 0.000001 -0.000000 -0.000000 0.000001 -0.000000 -0.000000 0.000001 -0.000000 -0.000000 0.000001 -0.000000 -0.000000 -0.000001 0.000001 -0.000000 0.000000 0.000002 -0.000000 
-1.488578 90.774750 4.014863 1.808449 -21.637604 -1.417733 -0.000000 0.000001 -0.000000 -27.617658 10.980243 26.730039 36.557652 7.912501 -0.438721 -6.167314 3.773726 -15.002319 0.000000 0.000000 -0.000000 0.000001 0.000001 0.000002 -12.114955 -8.917745 -13.137245 25.472321 7.220348 -3.593688 -16.477772 -3.319071 14.867635 -0.000000 0.000000 0.000000 0.000002 0.000000 0.000002 5.892540 1.325454 -0.242893 1.447115 0.354096 -0.231525 1.446405 0.366736 -0.225805 0.684246 0.686726 -0.127587 0.684241 0.686731 -0.127587 0.000001 0.000000 0.000000 0.684243 0.686726 -0.127587 0.684250 0.686728 -0.127588 0.000000 -0.000001 0.000000 0.000001 0.000000 -0.000000 2.738338 -11.318597 -8.395673 -7.469795 7.062995 -64.340683 0.000007 -23.403418 0.000013 12.556355 1.279386 -2.705286 5.882989 2.726455 2.651801 6.901248 12.699488 0.413216 0.000003 -0.000002 0.000000 -1.264345 -6.785015 -8.473059 0.228975 1.623411 -16.055353 0.000000 -0.000001 -0.000001 2.125133 10.392671 -15.613292 0.491238 2.350153 -23.608843 -0.000002 -0.000000 -0.000001 7.168768 15.057350 -32.538301 0.941195 3.186371 -32.905017 -0.000000 -0.000002 -0.000004 6.475482 20.541891 -36.126025 1.382805 3.781347 -40.162424 0.000001 -0.000005 -0.000003 0.000000 0.000000 -0.000000 0.000000 0.000000 -0.000000 -0.000001 0.000001 -0.000000 0.000000 0.000000 0.000000 0.000001 -0.000001 0.000000 0.000000 0.000000 0.000000 0.000001 -0.000001 0.000000 2.565639 8.239818 10.527779 -4.548270 -4.682963 64.510843 -0.000002 26.179263 -0.000002 26.645529 3.553044 1.942700 -13.137583 -0.674455 -6.848532 17.219269 -31.709754 -5.356318 -0.000000 -0.000004 -0.000001 -0.118464 -1.205509 7.036248 0.194618 -1.333573 16.604929 0.000001 -0.000000 0.000000 0.111692 -3.124076 14.623836 0.722960 -2.494193 32.324833 -0.000000 0.000000 0.000002 1.755423 -7.261836 22.763024 1.012224 -2.900845 38.465006 0.000001 0.000002 0.000001 3.272090 -9.793712 26.472746 1.210851 -3.134312 42.237060 0.000002 0.000002 -0.000006 -0.000001 -0.000000 0.000000 0.000000 0.000000 -0.000001 -0.000001 -0.000000 0.000002 0.000000 0.000001 -0.000001 0.000001 0.000001 -0.000000 0.000000 0.000001 -0.000001 0.000001 0.000001 -0.000000 -0.000000 0.000000 -0.000000 -0.000000 0.000000 -0.000000 -0.000000 0.000000 -0.000000 -0.000000 0.000000 -0.000000 -0.000000 0.000000 -0.000000 -0.000000 0.000000 -0.000000 -0.000000 0.000000 -0.000000 0.000000 -0.000002 0.000001 -0.000000 0.000001 -0.000000 
-1.490331 90.772705 4.019322 1.808451 -21.637694 -1.417771 0.000000 0.000002 -0.000000 -27.612064 10.981453 26.721879 36.561702 7.912871 -0.438595 -6.180200 3.774247 -15.001993 0.000000 -0.000001 0.000000 -0.000001 -0.000000 -0.000000 -12.104322 -8.919038 -13.150535 25.458051 7.213824 -3.590254 -16.470909 -3.322188 14.881620 -0.000000 0.000000 0.000000 0.000001 -0.000003 -0.000002 5.892569 1.334481 -0.242854 1.447114 0.354094 -0.231525 1.446404 0.366738 -0.225805 0.684247 0.686725 -0.127588 0.684246 0.686737 -0.127590 0.000002 -0.000003 0.000000 0.684247 0.686725 -0.127587 0.684323 0.686724 -0.127589 0.000001 0.000002 -0.000000 0.000002 -0.000003 0.000001 2.740297 -11.307297 -8.394007 -7.475544 7.060399 -64.341680 0.000000 -23.450614 0.000003 12.557788 1.295262 -2.708775 5.882998 2.726447 2.651789 6.901249 12.699480 0.413224 0.000002 0.000000 -0.000001 -1.264340 -6.785018 -8.473054 0.228967 1.623407 -16.055371 -0.000002 0.000001 0.000001 2.125129 10.392672 -15.613292 0.491240 2.350147 -23.608844 -0.000002 -0.000002 -0.000002 7.168769 15.057342 -32.538321 0.941208 3.186382 -32.905017 0.000002 -0.000002 -0.000001 6.475501 20.541884 -36.126028 1.382802 3.781342 -40.162428 -0.000001 -0.000003 -0.000004 0.000002 0.000000 0.000000 0.000002 0.000000 0.000000 0.000001 0.000001 0.000000 0.000000 -0.000001 -0.000000 0.000000 -0.000001 -0.000000 0.000000 -0.000001 -0.000000 0.000000 -0.000001 -0.000000 2.565644 8.239816 10.527781 -4.550136 -4.684272 64.525596 -0.000010 26.149405 0.000017 26.671568 3.578530 1.979883 -13.137574 -0.674445 -6.848517 17.219259 -31.709751 -5.356317 0.000003 0.000001 -0.000000 -0.118462 -1.205493 7.036248 0.194612 -1.333575 16.604931 -0.000000 -0.000001 0.000000 0.111689 -3.124070 14.623869 0.722971 -2.494189 32.324816 -0.000003 -0.000000 0.000000 1.755422 -7.261831 22.763026 1.012228 -2.900848 38.465003 0.000001 0.000001 -0.000001 3.272087 -9.793704 26.472734 1.210861 -3.134323 42.237070 0.000001 -0.000000 0.000001 -0.000001 0.000001 -0.000000 0.000001 0.000000 0.000000 -0.000001 0.000001 0.000000 0.000000 -0.000003 -0.000001 0.000000 -0.000003 -0.000000 0.000000 -0.000003 -0.000001 0.000000 -0.000003 -0.000000 -0.000000 0.000002 -0.000000 -0.000000 0.000002 -0.000000 -0.000000 0.000002 -0.000000 -0.000000 0.000002 -0.000000 -0.000000 0.000002 -0.000000 -0.000000 0.000002 -0.000000 -0.000000 0.000002 -0.000000 -0.000000 0.000001 0.000000 0.000000 0.000002 -0.000000 
-1.490153 90.768082 4.019350 1.808380 -21.631861 -1.417888 -0.000000 -0.000000 -0.000000 -27.623257 10.981381 26.718882 36.579184 7.912754 -0.438375 -6.189941 3.774457 -15.001723 -0.000000 -0.000000 0.000000 -0.000000 -0.000001 0.000001 -12.113655 -8.919281 -13.160981 25.472916 7.207324 -3.587376 -16.468356 -3.323134 14.887126 0.000000 0.000002 0.000000 0.000000 0.000001 -0.000000 5.892572 1.333896 -0.242934 1.447118 0.354086 -0.231525 1.446406 0.366738 -0.225805 0.684285 0.686781 -0.127597 0.684291 0.686772 -0.127597 -0.000001 -0.000002 0.000000 0.684289 0.686774 -0.127596 0.684432 0.686776 -0.127599 0.000001 0.000001 -0.000000 -0.000001 -0.000002 0.000000 2.737520 -11.303494 -8.411527 -7.494618 7.045886 -64.320841 -0.000001 -23.467685 -0.000018 12.597214 1.301275 -2.722816 5.882984 2.726451 2.651770 6.901241 12.699477 0.413230 -0.000001 -0.000002 -0.000003 -1.264343 -6.785023 -8.473052 0.228977 1.623410 -16.055355 -0.000001 -0.000001 0.000000 2.125133 10.392660 -15.613295 0.491225 2.350139 -23.608848 -0.000001 -0.000001 0.000000 7.168759 15.057342 -32.538311 0.941203 3.186378 -32.905024 -0.000003 0.000001 -0.000001 6.475479 20.541878 -36.126018 1.382807 3.781347 -40.162431 -0.000001 -0.000003 -0.000003 -0.000001 0.000000 -0.000000 -0.000001 0.000000 -0.000000 -0.000002 0.000001 -0.000000 -0.000000 0.000001 -0.000000 -0.000000 0.000001 -0.000000 -0.000000 0.000001 -0.000000 -0.000000 0.000001 -0.000000 2.565460 8.240789 10.527807 -4.573469 -4.669665 64.531887 -0.000012 26.112896 0.000032 26.669867 3.605692 1.965080 -13.137573 -0.674448 -6.848521 17.219260 -31.709761 -5.356325 0.000001 0.000000 0.000001 -0.118464 -1.205506 7.036243 0.194618 -1.333573 16.604926 -0.000000 0.000000 -0.000000 0.111690 -3.124074 14.623847 0.722968 -2.494191 32.324847 -0.000001 0.000001 -0.000000 1.755426 -7.261835 22.763026 1.012221 -2.900843 38.465003 0.000001 -0.000001 -0.000004 3.272085 -9.793708 26.472737 1.210862 -3.134316 42.237070 0.000001 0.000001 0.000001 -0.000001 -0.000000 -0.000000 -0.000001 -0.000000 -0.000001 -0.000001 -0.000000 0.000000 -0.000000 0.000000 0.000002 0.000000 0.000000 0.000002 -0.000000 0.000000 0.000002 0.000000 0.000000 0.000002 -0.000000 -0.000000 0.000000 -0.000000 -0.000000 0.000000 -0.000000 -0.000000 0.000000 -0.000000 -0.000000 0.000000 -0.000000 -0.000000 0.000000 -0.000000 -0.000000 0.000000 -0.000000 -0.000000 0.000000 0.000000 -0.000002 0.000000 -0.000000 -0.000000 -0.000000 
